<?xml version="1.0" encoding="UTF-8" standalone="no" ?>
<!DOCTYPE svg PUBLIC "-//W3C//DTD SVG 1.1//EN" "http://www.w3.org/Graphics/SVG/1.1/DTD/svg11.dtd">
<svg xmlns="http://www.w3.org/2000/svg" xmlns:xlink="http://www.w3.org/1999/xlink" version="1.1" width="640" height="640" viewBox="0 0 640 640" xml:space="preserve">
<desc>Created with Fabric.js 4.6.0</desc>
<defs>
</defs>
<g transform="matrix(2.04 0 0 2.04 320 314.1)" id="aZroaxlHsRxi01LDc6XML"  >
<path style="stroke: rgb(165,116,218); stroke-width: 0; stroke-dasharray: none; stroke-linecap: butt; stroke-dashoffset: 0; stroke-linejoin: miter; stroke-miterlimit: 4; fill: rgb(0,0,0); fill-rule: nonzero; opacity: 1;" vector-effect="non-scaling-stroke"  transform=" translate(0, 0)" d="M 0 -118.17575 C 65.23301 -118.17575 118.17575 -65.23302 118.17575 0 C 118.17575 65.23301 65.23302 118.17575 0 118.17575 C -65.23301 118.17575 -118.17575 65.23302 -118.17575 0 C -118.17575 -65.23301 -65.23302 -118.17575 0 -118.17575 z" stroke-linecap="round" />
</g>
<g transform="matrix(0.37 0 0 1 320.09 74.1)" id="PKoAHJJaSz1IY6RuM-bM8"  >
<path style="stroke: rgb(217,48,15); stroke-width: 0; stroke-dasharray: none; stroke-linecap: butt; stroke-dashoffset: 0; stroke-linejoin: miter; stroke-miterlimit: 4; fill: rgb(0,0,0); fill-rule: nonzero; opacity: 1;" vector-effect="non-scaling-stroke"  transform=" translate(0, 0)" d="M -54.10456 -54.10456 L 54.10457 -54.10456 L 54.10457 54.10457 L -54.10456 54.10457 z" stroke-linecap="round" />
</g>
<g transform="matrix(0 0.37 -1 0 560 319.98)" id="6fHJwCCuoQq0yJB8_p1Js"  >
<path style="stroke: rgb(217,48,15); stroke-width: 0; stroke-dasharray: none; stroke-linecap: butt; stroke-dashoffset: 0; stroke-linejoin: miter; stroke-miterlimit: 4; fill: rgb(0,0,0); fill-rule: nonzero; opacity: 1;" vector-effect="non-scaling-stroke"  transform=" translate(0, 0)" d="M -54.10456 -54.10456 L 54.10457 -54.10456 L 54.10457 54.10457 L -54.10456 54.10457 z" stroke-linecap="round" />
</g>
<g transform="matrix(0 0.37 -1 0 80 319.98)" id="9etYpz4jjJOsDCvV8J2rP"  >
<path style="stroke: rgb(217,48,15); stroke-width: 0; stroke-dasharray: none; stroke-linecap: butt; stroke-dashoffset: 0; stroke-linejoin: miter; stroke-miterlimit: 4; fill: rgb(0,0,0); fill-rule: nonzero; opacity: 1;" vector-effect="non-scaling-stroke"  transform=" translate(0, 0)" d="M -54.10456 -54.10456 L 54.10457 -54.10456 L 54.10457 54.10457 L -54.10456 54.10457 z" stroke-linecap="round" />
</g>
<g transform="matrix(0.26 0.26 -0.71 0.71 500 154.1)" id="Ij0BncG21V7dh7cG73ua_"  >
<path style="stroke: rgb(217,48,15); stroke-width: 0; stroke-dasharray: none; stroke-linecap: butt; stroke-dashoffset: 0; stroke-linejoin: miter; stroke-miterlimit: 4; fill: rgb(0,0,0); fill-rule: nonzero; opacity: 1;" vector-effect="non-scaling-stroke"  transform=" translate(0, 0)" d="M -54.10456 -54.10456 L 54.10457 -54.10456 L 54.10457 54.10457 L -54.10456 54.10457 z" stroke-linecap="round" />
</g>
<g transform="matrix(0.26 0.26 -0.71 0.71 160 492.41)" id="zMAHs-xDo0MelRVkNH8UH"  >
<path style="stroke: rgb(217,48,15); stroke-width: 0; stroke-dasharray: none; stroke-linecap: butt; stroke-dashoffset: 0; stroke-linejoin: miter; stroke-miterlimit: 4; fill: rgb(0,0,0); fill-rule: nonzero; opacity: 1;" vector-effect="non-scaling-stroke"  transform=" translate(0, 0)" d="M -54.10456 -54.10456 L 54.10457 -54.10456 L 54.10457 54.10457 L -54.10456 54.10457 z" stroke-linecap="round" />
</g>
<g transform="matrix(0.37 0 0 1 319.98 554.1)" id="iEwrQ3k9M69LDFN9GmqUH"  >
<path style="stroke: rgb(217,48,15); stroke-width: 0; stroke-dasharray: none; stroke-linecap: butt; stroke-dashoffset: 0; stroke-linejoin: miter; stroke-miterlimit: 4; fill: rgb(0,0,0); fill-rule: nonzero; opacity: 1;" vector-effect="non-scaling-stroke"  transform=" translate(0, 0)" d="M -54.10456 -54.10456 L 54.10457 -54.10456 L 54.10457 54.10457 L -54.10456 54.10457 z" stroke-linecap="round" />
</g>
<g transform="matrix(1.79 0 0 1.79 242.06 214.1)" id="nFDaoS9qXkdlwwpHzwdFa"  >
<path style="stroke: rgb(162,128,9); stroke-width: 0; stroke-dasharray: none; stroke-linecap: butt; stroke-dashoffset: 0; stroke-linejoin: miter; stroke-miterlimit: 4; fill: rgb(255,255,255); fill-rule: nonzero; opacity: 1;" vector-effect="non-scaling-stroke"  transform=" translate(0, 0)" d="M 0 -23.49277 C 12.96801 -23.49277 23.49277 -12.96801 23.49277 0 C 23.49277 12.96801 12.96801 23.49277 0 23.49277 C -12.96801 23.49277 -23.49277 12.96801 -23.49277 0 C -23.49277 -12.96801 -12.96801 -23.49277 0 -23.49277 z" stroke-linecap="round" />
</g>
<g transform="matrix(-0.26 0.26 -0.71 -0.71 484.34 484.07)" id="8njngq0rhPZAayFiNwkM3"  >
<path style="stroke: rgb(217,48,15); stroke-width: 0; stroke-dasharray: none; stroke-linecap: butt; stroke-dashoffset: 0; stroke-linejoin: miter; stroke-miterlimit: 4; fill: rgb(0,0,0); fill-rule: nonzero; opacity: 1;" vector-effect="non-scaling-stroke"  transform=" translate(0, 0)" d="M -54.10456 -54.10456 L 54.10457 -54.10456 L 54.10457 54.10457 L -54.10456 54.10457 z" stroke-linecap="round" />
</g>
<g transform="matrix(-0.26 0.26 -0.71 -0.71 147.59 149.51)" id="apiIdjAhUm7vJtsdHBt6b"  >
<path style="stroke: rgb(217,48,15); stroke-width: 0; stroke-dasharray: none; stroke-linecap: butt; stroke-dashoffset: 0; stroke-linejoin: miter; stroke-miterlimit: 4; fill: rgb(0,0,0); fill-rule: nonzero; opacity: 1;" vector-effect="non-scaling-stroke"  transform=" translate(0, 0)" d="M -54.10456 -54.10456 L 54.10457 -54.10456 L 54.10457 54.10457 L -54.10456 54.10457 z" stroke-linecap="round" />
</g>
</svg>